# xmcd CD database file
#
# Track frame offsets:
#	150
#	10750
#	29125
#	44795
#	54250
#	70150
#	82672
#	95572
#	105330
#	138477
#	151472
#	165032
#	180475
#	190905
#	211205
#	242037
#
# Disc length: 3410 seconds
#
# Revision: 1
# Processed by: cddbd v1.4PL0 Copyright (c) Steve Scherf et al.
# Submitted via: CDex 1.50beta10
#
DISCID=c80d5010
DTITLE=James Cotton - Best Of The Vanguard Years
DYEAR=1999
DGENRE=Blues
TTITLE0=Cotton Crop Blues
TTITLE1=The Blues Keep Falling
TTITLE2=Love Me or Leave Me
TTITLE3=Rocket 88
TTITLE4=West Helena Blues
TTITLE5=River's Invitation
TTITLE6=Honest I Do
TTITLE7=Got to Get You Off My Mind
TTITLE8=Coast Blues
TTITLE9=Next Time You See Me
TTITLE10=Cut You Loose
TTITLE11=Ain't Nobody's Business
TTITLE12=Set a Date
TTITLE13=Slippin'and Slidin'
TTITLE14=Negative 10-4
TTITLE15=Next Time You See Me
EXTD=YEAR: 1999
EXTT0=
EXTT1=
EXTT2=
EXTT3=
EXTT4=
EXTT5=
EXTT6=
EXTT7=
EXTT8=
EXTT9=
EXTT10=
EXTT11=
EXTT12=
EXTT13=
EXTT14=
EXTT15=
PLAYORDER=
